<svg width="164" height="129" viewBox="0 0 164 129" fill="none" xmlns="http://www.w3.org/2000/svg">
<g clip-path="url(#clip0_1_18)">
<path d="M144.975 92.6128H86.064C85.5576 92.6119 85.0722 92.4054 84.7141 92.0385C84.356 91.6717 84.1545 91.1743 84.1536 90.6555V2.72C84.1554 2.20176 84.3573 1.70529 84.7153 1.33915C85.0732 0.97301 85.5582 0.766978 86.064 0.766098H144.975C145.481 0.766978 145.966 0.97301 146.324 1.33915C146.682 1.70529 146.884 2.20176 146.886 2.72V90.6555C146.885 91.1743 146.683 91.6717 146.325 92.0385C145.967 92.4054 145.482 92.6119 144.975 92.6128ZM86.064 0.849598C85.823 0.847837 85.5841 0.894891 85.3609 0.988058C85.1377 1.08122 84.9347 1.21867 84.7635 1.39248C84.5924 1.56629 84.4564 1.77305 84.3635 2.00088C84.2706 2.2287 84.2225 2.47309 84.2221 2.72V90.6555C84.2221 91.1525 84.4148 91.6291 84.7578 91.9804C85.1007 92.3318 85.5659 92.5293 86.051 92.5293H144.975C145.46 92.5293 145.926 92.3318 146.269 91.9804C146.612 91.6291 146.804 91.1525 146.804 90.6555V2.72C146.804 2.22305 146.612 1.74646 146.269 1.39506C145.926 1.04367 145.46 0.846257 144.975 0.846257L86.064 0.849598Z" fill="#F0F0F0"/>
<path d="M77.0273 92.6128H18.1028C17.5964 92.6119 17.111 92.4054 16.7529 92.0385C16.3948 91.6716 16.1933 91.1743 16.1924 90.6555V2.72C16.1933 2.20118 16.3948 1.70386 16.7529 1.33699C17.111 0.970132 17.5964 0.763639 18.1028 0.762756H77.0273C77.5337 0.763639 78.0191 0.970132 78.3772 1.33699C78.7352 1.70386 78.9368 2.20118 78.9376 2.72V90.6555C78.9368 91.1743 78.7352 91.6716 78.3772 92.0385C78.0191 92.4054 77.5337 92.6119 77.0273 92.6128ZM18.1028 0.849597C17.6183 0.849596 17.1536 1.04655 16.8107 1.39722C16.4678 1.74789 16.2748 2.22363 16.2739 2.72V90.6555C16.2739 91.1525 16.4666 91.6291 16.8096 91.9804C17.1526 92.3318 17.6177 92.5293 18.1028 92.5293H77.0273C77.5123 92.5293 77.9775 92.3318 78.3205 91.9804C78.6635 91.6291 78.8561 91.1525 78.8561 90.6555V2.72C78.8561 2.22305 78.6635 1.74646 78.3205 1.39506C77.9775 1.04367 77.5123 0.846256 77.0273 0.846256L18.1028 0.849597Z" fill="#F0F0F0"/>
<path d="M163.258 113.01H0.25754V113.094H163.258V113.01Z" fill="#E0E0E0"/>
<path d="M73.4348 81.2768L75.5733 83.4478L75.8667 83.7484L61.05 99.0957L56.2578 94.1325L38.0344 113.01H41.4248L56.2578 97.6428L61.05 102.606L77.575 85.4852L77.7021 85.6155L79.8407 87.7865L81.3957 79.5066L73.4348 81.2768Z" fill="#F0F0F0"/>
<path d="M44.1567 25.3218L46.2953 27.4928L46.5887 27.79L31.772 43.1407L26.9798 38.1741L16.2739 49.2696V52.7799L26.9798 41.6878L31.772 46.651L48.2969 29.5302L48.4273 29.6604L50.5626 31.8314L52.1176 23.5516L44.1567 25.3218Z" fill="#F0F0F0"/>
<path d="M27.2243 20.8662C27.2247 20.927 27.2134 20.9873 27.191 21.0436C27.1685 21.0999 27.1355 21.1511 27.0937 21.1943C27.0518 21.2374 27.0021 21.2717 26.9473 21.2951C26.8925 21.3184 26.8337 21.3305 26.7744 21.3305H25.4704V22.6665C25.4704 22.7887 25.423 22.9059 25.3386 22.9924C25.2542 23.0788 25.1398 23.1274 25.0205 23.1274C24.9012 23.1274 24.7868 23.0788 24.7024 22.9924C24.618 22.9059 24.5706 22.7887 24.5706 22.6665V21.3305H23.2666C23.2041 21.3359 23.1412 21.328 23.0818 21.3072C23.0224 21.2865 22.9679 21.2533 22.9217 21.2098C22.8755 21.1663 22.8386 21.1135 22.8133 21.0546C22.7881 20.9957 22.7751 20.9322 22.7751 20.8679C22.7751 20.8036 22.7881 20.74 22.8133 20.6812C22.8386 20.6223 22.8755 20.5695 22.9217 20.526C22.9679 20.4825 23.0224 20.4493 23.0818 20.4285C23.1412 20.4078 23.2041 20.3998 23.2666 20.4053H24.5706V19.0693C24.5706 18.947 24.618 18.8298 24.7024 18.7434C24.7868 18.6569 24.9012 18.6084 25.0205 18.6084C25.1398 18.6084 25.2542 18.6569 25.3386 18.7434C25.423 18.8298 25.4704 18.947 25.4704 19.0693V20.4053H26.7744C26.8335 20.4053 26.892 20.4172 26.9465 20.4404C27.0011 20.4635 27.0507 20.4975 27.0925 20.5403C27.1343 20.5831 27.1674 20.6339 27.19 20.6898C27.2126 20.7457 27.2243 20.8057 27.2243 20.8662Z" fill="#F0F0F0"/>
<path d="M137.96 52.7799C137.96 52.9022 137.913 53.0194 137.828 53.1058C137.744 53.1923 137.629 53.2408 137.51 53.2408H136.206V54.5768C136.206 54.6991 136.159 54.8163 136.074 54.9028C135.99 54.9892 135.875 55.0378 135.756 55.0378C135.637 55.0378 135.522 54.9892 135.438 54.9028C135.354 54.8163 135.306 54.6991 135.306 54.5768V53.2408H134.002C133.883 53.2408 133.769 53.1923 133.684 53.1058C133.6 53.0194 133.552 52.9022 133.552 52.7799C133.552 52.6577 133.6 52.5404 133.684 52.454C133.769 52.3676 133.883 52.319 134.002 52.319H135.306V50.983C135.306 50.8608 135.354 50.7435 135.438 50.6571C135.522 50.5706 135.637 50.5221 135.756 50.5221C135.875 50.5221 135.99 50.5706 136.074 50.6571C136.159 50.7435 136.206 50.8608 136.206 50.983V52.319H137.51C137.629 52.319 137.744 52.3676 137.828 52.454C137.913 52.5404 137.96 52.6577 137.96 52.7799Z" fill="#F0F0F0"/>
<path d="M94.3933 9.51355C94.3937 9.57436 94.3824 9.63466 94.36 9.69097C94.3376 9.74727 94.3045 9.79848 94.2627 9.84163C94.2209 9.88479 94.1711 9.91904 94.1163 9.94241C94.0615 9.96578 94.0028 9.97782 93.9434 9.97781H92.6394V11.3138C92.6394 11.3743 92.6278 11.4343 92.6052 11.4902C92.5826 11.5461 92.5494 11.5969 92.5077 11.6397C92.4659 11.6825 92.4163 11.7165 92.3617 11.7396C92.3071 11.7628 92.2486 11.7747 92.1895 11.7747C92.1305 11.7747 92.072 11.7628 92.0174 11.7396C91.9628 11.7165 91.9132 11.6825 91.8714 11.6397C91.8296 11.5969 91.7965 11.5461 91.7739 11.4902C91.7513 11.4343 91.7397 11.3743 91.7397 11.3138V9.97781H90.4357C90.3731 9.98326 90.3102 9.97535 90.2508 9.95457C90.1914 9.9338 90.1369 9.90062 90.0907 9.85713C90.0445 9.81364 90.0076 9.7608 89.9824 9.70194C89.9572 9.64309 89.9441 9.57951 89.9441 9.51522C89.9441 9.45094 89.9572 9.38736 89.9824 9.3285C90.0076 9.26964 90.0445 9.2168 90.0907 9.17331C90.1369 9.12983 90.1914 9.09665 90.2508 9.07587C90.3102 9.0551 90.3731 9.04718 90.4357 9.05263H91.7397V7.72999C91.7397 7.66946 91.7513 7.60953 91.7739 7.5536C91.7965 7.49768 91.8296 7.44687 91.8714 7.40407C91.9132 7.36127 91.9628 7.32732 92.0174 7.30416C92.072 7.28099 92.1305 7.26907 92.1895 7.26907C92.2486 7.26907 92.3071 7.28099 92.3617 7.30416C92.4163 7.32732 92.4659 7.36127 92.5077 7.40407C92.5494 7.44687 92.5826 7.49768 92.6052 7.5536C92.6278 7.60953 92.6394 7.66946 92.6394 7.72999V9.06599H93.9434C94.0605 9.06594 94.173 9.11266 94.257 9.19623C94.341 9.27981 94.3899 9.39364 94.3933 9.51355Z" fill="#F0F0F0"/>
<path d="M26.8885 78.1205H18.7385V81.9615H26.8885V78.1205Z" fill="#F5F5F5"/>
<path d="M35.7296 78.1205H27.5796V81.9615H35.7296V78.1205Z" fill="#F5F5F5"/>
<path d="M31.309 82.6295H23.159V86.4705H31.309V82.6295Z" fill="#F5F5F5"/>
<path d="M132.874 6.26039H124.724V10.1014H132.874V6.26039Z" fill="#F5F5F5"/>
<path d="M141.719 6.26039H133.569V10.1014H141.719V6.26039Z" fill="#F5F5F5"/>
<path d="M137.298 10.7694H129.148V14.6104H137.298V10.7694Z" fill="#F5F5F5"/>
<path d="M36.0328 61.3971H31.221V68.8954H36.0328V61.3971Z" fill="#F5F5F5"/>
<path d="M43.3058 57.0384H38.4941V68.8954H43.3058V57.0384Z" fill="#F5F5F5"/>
<path d="M50.5789 50.3217H45.7671V68.8954H50.5789V50.3217Z" fill="#F5F5F5"/>
<path d="M57.852 43.2142H53.0402V68.8954H57.852V43.2142Z" fill="#F5F5F5"/>
<path d="M121.083 82.2955H116.271V89.7938H121.083V82.2955Z" fill="#F5F5F5"/>
<path d="M128.356 77.9335H123.544V89.7905H128.356V77.9335Z" fill="#F5F5F5"/>
<path d="M135.629 71.2167H130.817V89.7905H135.629V71.2167Z" fill="#F5F5F5"/>
<path d="M142.902 64.1125H138.09V89.7938H142.902V64.1125Z" fill="#F5F5F5"/>
<path d="M146.266 126.838C146.266 127.549 117.787 128.127 82.6573 128.127C47.5275 128.127 19.0514 127.549 19.0514 126.838C19.0514 126.126 47.5275 125.552 82.6573 125.552C117.787 125.552 146.266 126.126 146.266 126.838Z" fill="#F5F5F5"/>
<path d="M124.281 90.3816L126.42 92.556L126.713 92.8532L111.896 108.201L107.104 103.237L84.2221 126.948H87.6092L107.104 106.748L111.896 111.714L128.424 94.59L128.552 94.7203L130.69 96.8913L132.242 88.6148L124.281 90.3816Z" fill="#0CDEF2"/>
<path d="M43.1917 125.535L45.3401 113.608H30.732L32.8804 125.528C32.9459 125.894 33.1344 126.225 33.4132 126.463C33.6919 126.701 34.0432 126.831 34.406 126.831H41.6661C42.028 126.831 42.3785 126.702 42.6571 126.465C42.9357 126.228 43.1248 125.9 43.1917 125.535Z" fill="#263238"/>
<path d="M43.7916 102.826C41.8682 102.305 38.9309 106.397 38.0377 110.385V104.59C38.7793 103.304 39.749 102.171 40.8967 101.25C43.3091 99.246 45.5324 96.6508 43.6058 96.1298C41.7997 95.6421 39.1004 99.2159 38.0377 102.957V95.4818C38.4845 94.7903 39.0345 94.1749 39.6677 93.6582C41.1901 92.389 42.6017 90.7591 41.3759 90.4284C40.3229 90.1445 38.7679 92.0583 38.0312 94.2126V91.7945C38.1655 90.7933 38.4298 89.8149 38.8168 88.8853C39.935 86.3536 40.5381 83.7451 39.0646 83.9421C37.5911 84.1392 36.6294 88.6415 37.4346 92.1017V93.3476C36.8902 90.8158 35.0189 88.1939 33.7964 88.5213C32.5739 88.8486 33.9822 90.4785 35.5047 91.751C36.3077 92.3839 36.9664 93.1886 37.4346 94.1091V99.9841C36.5609 95.9761 33.6008 91.8412 31.6676 92.3623C29.7345 92.8833 31.9643 95.4685 34.38 97.4858C35.648 98.4874 36.6899 99.7577 37.4346 101.21V108.264C36.5022 104.329 33.6171 100.362 31.7198 100.873C29.8225 101.384 31.446 103.281 34.1583 105.569C35.5041 106.69 36.6133 108.079 37.4183 109.653V113.608H38.0149V111.637C38.7685 110.199 39.8119 108.941 41.076 107.947C43.4949 105.926 45.7182 103.348 43.7916 102.826Z" fill="#0CDEF2"/>
<path d="M46.2398 113.054H29.8323V114.69H46.2398V113.054Z" fill="#263238"/>
<path opacity="0.2" d="M46.2398 113.054H29.8323V114.69H46.2398V113.054Z" fill="white"/>
<path d="M131.244 37.3992C130.325 40.7539 128.352 43.7043 125.63 45.7936C122.908 47.8828 119.59 48.9942 116.19 48.9556H114.279V48.812C113.576 48.7137 112.88 48.5653 112.196 48.3678C108.776 47.3842 105.79 45.223 103.743 42.2482C101.696 39.2733 100.711 35.6666 100.956 32.0353C101.201 28.404 102.659 24.9699 105.086 22.3114C107.513 19.6529 110.759 17.9323 114.279 17.4394V17.2924H116.19C118.589 17.2665 120.961 17.8131 123.118 18.8888C125.276 19.9645 127.159 21.5398 128.62 23.4901C130.08 25.4404 131.078 27.7123 131.533 30.1258C131.989 32.5393 131.89 35.0283 131.244 37.3959V37.3992Z" fill="#0CDEF2"/>
<path opacity="0.3" d="M131.244 37.3992C130.325 40.7539 128.352 43.7043 125.63 45.7936C122.908 47.8828 119.59 48.9942 116.19 48.9556H114.279V48.812C113.576 48.7137 112.88 48.5653 112.196 48.3678C108.776 47.3842 105.79 45.223 103.743 42.2482C101.696 39.2733 100.711 35.6666 100.956 32.0353C101.201 28.404 102.659 24.9699 105.086 22.3114C107.513 19.6529 110.759 17.9323 114.279 17.4394V17.2924H116.19C118.589 17.2665 120.961 17.8131 123.118 18.8888C125.276 19.9645 127.159 21.5398 128.62 23.4901C130.08 25.4404 131.078 27.7123 131.533 30.1258C131.989 32.5393 131.89 35.0283 131.244 37.3959V37.3992Z" fill="black"/>
<path d="M120.246 47.7866C128.144 44.4808 131.932 35.2407 128.705 27.1481C125.479 19.0556 116.46 15.1752 108.561 18.481C100.662 21.7868 96.8749 31.0269 100.102 39.1195C103.328 47.212 112.347 51.0924 120.246 47.7866Z" fill="#0CDEF2"/>
<path d="M119.412 44.5305C125.563 41.6958 128.306 34.2891 125.539 27.9874C122.773 21.6856 115.543 18.8751 109.393 21.7099C103.242 24.5446 100.499 31.9512 103.265 38.253C106.032 44.5547 113.261 47.3653 119.412 44.5305Z" fill="white"/>
<path d="M123.286 34.4726C124.009 29.4505 120.622 24.7788 115.72 24.0381C110.818 23.2974 106.258 26.7682 105.535 31.7903C104.812 36.8124 108.2 41.484 113.102 42.2248C118.004 42.9655 122.563 39.4947 123.286 34.4726Z" fill="#0CDEF2"/>
<path d="M120.076 34.0072C120.55 30.7991 118.396 27.8046 115.265 27.3188C112.133 26.8331 109.211 29.04 108.737 32.2481C108.262 35.4563 110.416 38.4508 113.548 38.9365C116.679 39.4223 119.602 37.2154 120.076 34.0072Z" fill="white"/>
<path d="M113.728 35.5889C114.203 35.7252 114.707 35.7142 115.176 35.5573C115.644 35.4005 116.057 35.1047 116.362 34.7076C116.667 34.3104 116.849 33.8296 116.888 33.3259C116.926 32.8222 116.817 32.3182 116.576 31.8777C116.334 31.4372 115.971 31.0798 115.531 30.8509C115.092 30.6219 114.596 30.5316 114.106 30.5914C113.617 30.6511 113.155 30.8583 112.78 31.1866C112.406 31.5149 112.134 31.9497 112.001 32.436C111.823 33.0888 111.905 33.7871 112.229 34.3781C112.553 34.969 113.092 35.4044 113.728 35.5889Z" fill="#0CDEF2"/>
<path d="M97.1121 23.3779L100.842 22.7934L100.274 18.9724C100.264 18.9188 100.264 18.8634 100.275 18.8098C100.286 18.7562 100.307 18.7054 100.338 18.6605C100.368 18.6156 100.408 18.5776 100.453 18.5488C100.499 18.5199 100.549 18.5008 100.602 18.4927C100.655 18.4845 100.709 18.4874 100.761 18.5013C100.812 18.5152 100.861 18.5396 100.903 18.5733C100.945 18.6069 100.98 18.649 101.006 18.6969C101.032 18.7449 101.048 18.7977 101.053 18.8522L101.67 22.9804L103.101 24.0593L102.605 20.7193C102.589 20.613 102.615 20.5045 102.677 20.4178C102.739 20.331 102.832 20.2731 102.936 20.2567C103.04 20.2403 103.146 20.2668 103.23 20.3304C103.315 20.3939 103.372 20.4894 103.388 20.5957L103.994 24.7406L105.803 26.1033L105.311 22.7633C105.303 22.7111 105.304 22.6577 105.316 22.6062C105.328 22.5547 105.35 22.5061 105.38 22.4633C105.411 22.4204 105.449 22.3842 105.493 22.3566C105.537 22.3289 105.586 22.3105 105.637 22.3024C105.74 22.2869 105.844 22.3132 105.928 22.3756C106.012 22.438 106.069 22.5316 106.087 22.6364L106.713 26.768L114.573 32.6965C115.065 33.114 114.742 33.6417 114.338 33.5248L106.162 27.3592L102.273 27.9671C102.169 27.9834 102.063 27.9569 101.978 27.8934C101.894 27.8298 101.837 27.7343 101.821 27.6281C101.805 27.5218 101.831 27.4133 101.893 27.3265C101.955 27.2398 102.048 27.1819 102.152 27.1655L105.259 26.6812L103.45 25.3184L99.5637 25.923C99.4599 25.9394 99.354 25.9129 99.2694 25.8493C99.1847 25.7857 99.1281 25.6903 99.1121 25.584C99.0962 25.4777 99.122 25.3692 99.1841 25.2825C99.2461 25.1957 99.3393 25.1378 99.443 25.1214L102.55 24.6371L101.119 23.5583L97.2295 24.1628C97.1771 24.1737 97.1231 24.1735 97.0707 24.1623C97.0184 24.1511 96.9688 24.1292 96.925 24.0977C96.8812 24.0663 96.8441 24.0261 96.816 23.9796C96.7878 23.933 96.7692 23.8811 96.7612 23.8269C96.7532 23.7727 96.7561 23.7175 96.7696 23.6645C96.7832 23.6115 96.8071 23.5618 96.8399 23.5186C96.8727 23.4754 96.9138 23.4394 96.9606 23.4129C97.0074 23.3864 97.0589 23.37 97.1121 23.3645V23.3779Z" fill="#263238"/>
<path d="M62.8821 126.948H62.5561V116.831H73.9368V106.865H85.3207V96.9113H96.7014V86.9448H108.085V76.9949H119.466V67.0284H131.01V67.3624H119.792V77.3156L119.629 77.3289H108.411V87.2788H97.0274V97.232L96.8644 97.2453H85.6467V107.199H74.2628V117.148L74.0998 117.165H62.8821V126.948Z" fill="#263238"/>
<path d="M133.279 67.1954L131.01 69.6002V64.7906L133.279 67.1954Z" fill="#263238"/>
<path d="M78.566 26.3004C79.3484 28.1174 80.0949 29.9744 80.848 31.8081L81.9597 34.5502C82.3378 35.4453 82.7095 36.3739 83.0909 37.1521C83.2052 37.4393 83.3661 37.7047 83.5668 37.937C83.8523 38.2641 84.1548 38.5752 84.4731 38.8688C85.1251 39.5168 85.8717 40.1481 86.6052 40.7893L91.0974 44.607L89.888 46.5642C88.0819 45.6691 86.3313 44.7138 84.6133 43.6417C83.7494 43.1073 82.9018 42.5428 82.0444 41.9216C81.5915 41.5917 81.1563 41.2371 80.7404 40.8595C80.4791 40.6243 80.236 40.3685 80.0134 40.0946L79.8341 39.8475L79.694 39.6337C79.5994 39.4901 79.5342 39.3765 79.4527 39.2429C79.1593 38.7486 78.9116 38.2877 78.6671 37.8234C78.4226 37.3592 78.1878 36.9016 77.9662 36.4407C77.5195 35.5188 77.0827 34.6003 76.6622 33.6751C75.8309 31.8248 75.0517 29.9744 74.3378 28.0706L78.566 26.3004Z" fill="#9E6141"/>
<path d="M78.478 26.0065L81.5196 31.8515C80.7079 33.8039 79.3913 35.4923 77.7119 36.7346L75.5407 34.1628L78.478 26.0065Z" fill="#0CDEF2"/>
<g opacity="0.5">
<path d="M78.478 26.0065L81.5196 31.8515C80.7079 33.8039 79.3913 35.4923 77.7119 36.7346L75.5407 34.1628L78.478 26.0065Z" fill="white"/>
</g>
<path d="M74.002 9.66053C73.0838 9.58827 72.1694 9.84339 71.4137 10.3827C70.658 10.922 70.1074 11.7123 69.8553 12.6198C68.936 15.4187 67.8569 17.0286 66.5953 17.5797C64.5382 18.4881 62.5692 20.3318 63.8243 22.9504C65.8096 27.092 74.2563 26.6745 75.9091 24.9043C77.5619 23.1341 75.8113 23.5683 77.5065 21.9517C79.2017 20.3352 80.998 15.7527 79.8048 12.5229C79.1398 10.736 76.61 9.06601 74.002 9.66053Z" fill="#263238"/>
<path d="M77.6858 19.0593C77.6468 19.2272 77.56 19.3795 77.4364 19.4968C77.3128 19.6142 77.158 19.6913 76.9916 19.7183C76.8252 19.7454 76.6547 19.7213 76.5017 19.649C76.3487 19.5767 76.2201 19.4594 76.1322 19.3122C76.0443 19.1649 76.001 18.9942 76.0079 18.8217C76.0148 18.6492 76.0716 18.4827 76.1709 18.3433C76.2703 18.2039 76.4078 18.0978 76.5661 18.0386C76.7243 17.9794 76.8962 17.9696 77.0599 18.0105C77.2783 18.0652 77.4667 18.2061 77.584 18.4026C77.7013 18.5991 77.7379 18.8352 77.6858 19.0593Z" fill="white"/>
<path d="M66.0411 110.398L66.2139 114.243H68.2188L68.6752 110.398H66.0411Z" fill="#9E6141"/>
<path d="M73.7771 116.948C73.7771 115.695 73.2815 115.321 72.61 115.278C71.9384 115.235 69.4999 114.39 69.4999 114.39C69.4999 114.39 69.0533 113.595 68.61 113.431C68.1666 113.267 67.6743 113.745 67.6743 113.745L66.429 113.588C66.429 113.588 66.103 113.017 65.7998 113.518C65.3239 114.296 65.1674 116.444 65.1478 116.948H73.7771Z" fill="#0CDEF2"/>
<path d="M73.6467 116.634H72.0819L65.2359 116.597C65.1478 116.597 65.1772 116.464 65.2652 116.467H65.7281C65.7281 116.467 65.7281 116.467 65.7281 116.447C65.8391 116.313 65.9203 116.156 65.966 115.987C66.0118 115.818 66.021 115.64 65.9931 115.467C65.9652 115.294 65.9007 115.129 65.8043 114.984C65.7079 114.839 65.5818 114.717 65.4347 114.627C65.3663 114.587 65.4641 114.47 65.5293 114.513C66.1487 114.907 66.3573 115.692 65.8553 116.464H66.8333L73.6793 116.5C73.764 116.504 73.7314 116.637 73.6467 116.634Z" fill="black"/>
<path d="M69.0696 114.944C69.4641 114.523 69.9955 114.403 70.3443 114.72C70.3997 114.774 70.4942 114.657 70.4388 114.607C70.0378 114.243 69.4184 114.4 68.9686 114.877C68.9034 114.947 69.0044 115.014 69.0696 114.944Z" fill="white"/>
<path d="M69.764 115.168C70.1585 114.747 70.6898 114.627 71.0387 114.947C71.0941 114.997 71.1886 114.881 71.1332 114.83C70.7322 114.466 70.1128 114.623 69.6662 115.101C69.601 115.171 69.6988 115.238 69.764 115.168Z" fill="white"/>
<path d="M70.4649 115.395C70.8594 114.971 71.3907 114.854 71.7396 115.171C71.795 115.221 71.8895 115.104 71.8308 115.054C71.4331 114.69 70.8137 114.847 70.3638 115.325C70.2986 115.395 70.3997 115.462 70.4649 115.395Z" fill="white"/>
<path d="M75.8472 46.8381C75.8472 46.8381 75.6809 53.2976 75.068 62.3724C74.9474 64.1293 74.8105 65.9896 74.6573 67.9201C74.3313 71.9281 73.927 76.2367 73.4217 80.6121C72.1992 91.1498 68.786 111.303 68.786 111.303L65.6792 111.374C65.6792 111.374 62.6181 93.3376 65.9694 80.856C65.7575 78.6983 65.5847 76.6743 65.451 74.7705C65.0372 69.596 64.9283 64.4007 65.125 59.2128C65.125 58.8988 65.1544 58.5915 65.1707 58.2909C65.2 57.7899 65.2359 57.3056 65.2717 56.8414C65.3271 56.0832 65.3989 55.3751 65.4706 54.7171C66.1715 48.5749 67.4266 46.8047 67.4266 46.8047L75.8472 46.8381Z" fill="#263238"/>
<g opacity="0.2">
<path d="M75.068 62.3724C74.9474 64.1293 74.8105 65.9896 74.6573 67.9201C71.5244 65.325 67.2864 60.6724 65.1707 58.2909C65.2 57.7899 65.2359 57.3056 65.2717 56.8414L75.068 62.3724Z" fill="black"/>
</g>
<path d="M83.4788 90.8526L87.2213 90.7424C89.2197 80.8827 94.7617 62.1052 91.8733 59.2462C81.7412 49.2095 62.592 44.47 62.592 44.47C60.2807 44.9409 58.6115 45.6757 58.103 47.9503C57.5781 50.2883 57.9009 53.4513 60.6816 55.4553C62.3801 56.681 64.5056 57.4927 68.7697 59.5C72.9342 61.5237 77.2408 63.2252 81.6532 64.5902C83.3908 65.1346 83.9711 65.3116 84.9132 65.5922C82.9507 72.86 83.456 88.0269 83.4788 90.8526Z" fill="#263238"/>
<path d="M84.0135 90.6088L83.9678 94.2527H85.9695L86.6508 90.6088H84.0135Z" fill="#9E6141"/>
<path d="M87.7364 91.7644L87.9907 90.405H83.1463L83.1235 91.7644H87.7364Z" fill="#263238"/>
<path d="M91.531 96.9748C91.531 95.719 91.0322 95.3449 90.3639 95.3048C89.6956 95.2647 87.2506 94.413 87.2506 94.413C87.2506 94.413 86.8073 93.6181 86.3607 93.4578C85.914 93.2975 85.4283 93.7684 85.4283 93.7684L84.183 93.6148C84.183 93.6148 83.857 93.0403 83.5538 93.5413C83.0778 94.3195 82.9214 96.4705 82.9018 96.9748H91.531Z" fill="#0CDEF2"/>
<path d="M91.4006 96.6441H89.8358L82.9898 96.6107C82.9018 96.6107 82.9311 96.4738 83.0192 96.4771H83.4821C83.4798 96.4707 83.4798 96.4636 83.4821 96.4571C83.593 96.3233 83.6742 96.1663 83.72 95.9971C83.7657 95.8279 83.775 95.6505 83.747 95.4773C83.7191 95.3041 83.6547 95.1392 83.5583 94.994C83.4619 94.8489 83.3357 94.727 83.1887 94.6368C83.1202 94.5967 83.218 94.4798 83.2832 94.5232C83.8994 94.9174 84.1113 95.7023 83.6092 96.4771H84.5872L91.4332 96.5139C91.518 96.5139 91.4854 96.6475 91.4006 96.6441Z" fill="black"/>
<path d="M86.8236 94.9575C87.218 94.5333 87.7494 94.413 88.0982 94.7337C88.1537 94.7838 88.2482 94.6669 88.1895 94.6168C87.7918 94.2527 87.1724 94.4097 86.7225 94.8873C86.6573 94.9575 86.7584 95.0243 86.8236 94.9575Z" fill="white"/>
<path d="M87.5082 95.1812C87.9026 94.757 88.434 94.6401 88.7828 94.9574C88.8383 95.0075 88.9328 94.894 88.8774 94.8405C88.4764 94.4765 87.857 94.6368 87.4104 95.1144C87.3419 95.1846 87.443 95.248 87.5082 95.1812Z" fill="white"/>
<path d="M88.2156 95.405C88.6133 94.9842 89.1447 94.8639 89.4935 95.1812C89.5489 95.2313 89.6402 95.1178 89.5848 95.0677C89.1871 94.7003 88.5677 94.8606 88.1178 95.3382C88.0526 95.4083 88.1504 95.4751 88.2156 95.405Z" fill="white"/>
<path d="M69.024 112.048L69.3272 110.692H65.2L65.2293 112.048H69.024Z" fill="#263238"/>
<path d="M58.0997 46.5275C64.4372 49.5836 75.7559 50.2415 75.9841 48.6985C76.6361 44.3565 75.8374 39.2763 76.6654 36.4941C80.1504 34.6571 77.989 32.3358 78.7551 29.0659C79.0339 27.8675 78.8505 26.605 78.2432 25.5416C77.6358 24.4782 76.6514 23.696 75.4951 23.3579C74.9409 23.1909 74.3639 23.0239 73.7966 22.8702L73.4511 22.7834C71.9257 22.4124 70.3782 22.1446 68.8186 21.9818C68.2514 21.9116 67.658 21.8482 67.0419 21.778C66.4258 21.7079 65.8194 21.6645 65.2456 21.6378C64.7387 21.6094 64.2314 21.6879 63.7553 21.8685C63.2792 22.0491 62.8443 22.3279 62.4776 22.6877C62.1109 23.0474 61.8201 23.4805 61.6233 23.96C61.4266 24.4395 61.328 24.9553 61.3336 25.4754C61.4154 28.4444 61.3065 31.4156 61.0076 34.3698C60.9457 34.9811 60.8772 35.5689 60.799 36.1434C60.5385 38.1716 60.1476 40.18 59.6287 42.1554C59.6212 42.1927 59.6114 42.2296 59.5993 42.2656C59.382 43.0494 59.156 43.7697 58.9212 44.4266C58.8495 44.6337 58.7745 44.8307 58.6963 45.0211C58.5431 45.4152 58.2725 46.14 58.0997 46.5275Z" fill="#0CDEF2"/>
<g opacity="0.3">
<path d="M58.0997 46.5275C64.4372 49.5836 75.7559 50.2415 75.9841 48.6985C76.6361 44.3565 75.8374 39.2763 76.6654 36.4941C80.1504 34.6571 77.989 32.3358 78.7551 29.0659C79.0339 27.8675 78.8505 26.605 78.2432 25.5416C77.6358 24.4782 76.6514 23.696 75.4951 23.3579C74.9409 23.1909 74.3639 23.0239 73.7966 22.8702L73.4511 22.7834C71.9257 22.4124 70.3782 22.1446 68.8186 21.9818C68.2514 21.9116 67.658 21.8482 67.0419 21.778C66.4258 21.7079 65.8194 21.6645 65.2456 21.6378C64.7387 21.6094 64.2314 21.6879 63.7553 21.8685C63.2792 22.0491 62.8443 22.3279 62.4776 22.6877C62.1109 23.0474 61.8201 23.4805 61.6233 23.96C61.4266 24.4395 61.328 24.9553 61.3336 25.4754C61.4154 28.4444 61.3065 31.4156 61.0076 34.3698C60.9457 34.9811 60.8772 35.5689 60.799 36.1434C60.5385 38.1716 60.1476 40.18 59.6287 42.1554C59.6212 42.1927 59.6114 42.2296 59.5993 42.2656C59.382 43.0494 59.156 43.7697 58.9212 44.4266C58.8495 44.6337 58.7745 44.8307 58.6963 45.0211C58.5431 45.4152 58.2725 46.14 58.0997 46.5275Z" fill="white"/>
</g>
<path d="M57.8063 26.7847C57.8063 26.7847 60.5349 21.5342 64.209 21.7346C66.5562 21.8615 66.2302 27.0185 63.6189 30.8929C61.1869 29.8976 59.3711 28.7019 57.8063 26.7847Z" fill="#0CDEF2"/>
<g opacity="0.5">
<path d="M57.8063 26.7847C57.8063 26.7847 60.5349 21.5342 64.209 21.7346C66.5562 21.8615 66.2302 27.0185 63.6189 30.8929C61.1869 29.8976 59.3711 28.7019 57.8063 26.7847Z" fill="white"/>
</g>
<path d="M68.8349 21.9818C70.077 25.0212 73.5912 27.1855 73.5912 27.1855C74.2432 25.9731 74.328 23.909 73.8162 22.8736L73.4706 22.7867C71.9444 22.4138 70.3958 22.1449 68.8349 21.9818Z" fill="#9E6141"/>
<path d="M73.7608 23.7253C73.7679 23.7729 73.7822 23.8191 73.8031 23.8622C74.2367 24.7974 73.5586 25.5322 72.6426 25.3351C72.5541 25.3185 72.4669 25.295 72.3818 25.265C72.0566 25.1546 71.7729 24.9433 71.57 24.6605C70.9511 23.7907 70.2678 22.9711 69.526 22.2089C71.0061 21.6177 71.8341 18.9724 72.1634 17.2958L73.9857 20.3752L74.3117 21.0432C74.0731 21.3603 73.8728 21.7057 73.7151 22.072C73.5902 22.3304 73.5291 22.6162 73.537 22.9044C73.545 23.1927 73.6218 23.4745 73.7608 23.7253Z" fill="#9E6141"/>
<g opacity="0.2">
<path d="M73.7216 22.0653C73.8793 21.699 74.0796 21.3536 74.3182 21.0366L73.9922 20.3686L72.6328 20.2316C72.7864 20.95 73.1696 21.5953 73.7216 22.0653Z" fill="black"/>
</g>
<path d="M72.1242 14.2263C71.5798 16.9818 71.2929 18.1341 72.2416 19.8843C73.6695 22.5162 77.0273 22.5763 78.3508 20.0412C79.5407 17.7567 80.2319 13.6351 77.9727 11.8649C75.7135 10.0947 72.6687 11.4708 72.1242 14.2263Z" fill="#9E6141"/>
<path d="M76.5155 11.1201C76.5155 11.1201 77.3044 13.9925 78.8953 14.2797C80.4861 14.567 79.4234 12.2757 77.9401 11.1602C77.2979 10.6725 76.5155 11.1201 76.5155 11.1201Z" fill="#263238"/>
<path d="M75.7559 15.078C75.7733 15.0861 75.7922 15.0903 75.8113 15.0903C75.8304 15.0903 75.8493 15.0861 75.8667 15.078C76.0157 14.9813 76.1848 14.9218 76.3604 14.9044C76.5359 14.887 76.713 14.9121 76.8773 14.9778C76.8941 14.9868 76.9126 14.9921 76.9315 14.9936C76.9504 14.995 76.9694 14.9925 76.9873 14.9862C77.0052 14.9799 77.0218 14.97 77.0358 14.957C77.0499 14.944 77.0613 14.9282 77.0692 14.9105C77.0771 14.8929 77.0815 14.8738 77.082 14.8544C77.0826 14.835 77.0793 14.8156 77.0723 14.7976C77.0653 14.7795 77.0549 14.7631 77.0415 14.7493C77.0282 14.7355 77.0122 14.7246 76.9947 14.7173C76.7879 14.6314 76.5642 14.5972 76.3419 14.6176C76.1197 14.6379 75.9054 14.7121 75.7168 14.8342C75.7005 14.8434 75.6863 14.856 75.675 14.8712C75.6638 14.8864 75.6557 14.9038 75.6514 14.9224C75.6471 14.9409 75.6467 14.9602 75.6501 14.9789C75.6535 14.9977 75.6606 15.0155 75.6711 15.0312C75.6916 15.0616 75.7215 15.0839 75.7559 15.0947" fill="#263238"/>
<path d="M79.3354 15.8696C79.3509 15.8735 79.367 15.8741 79.3827 15.8712C79.3985 15.8683 79.4134 15.8621 79.4266 15.8529C79.441 15.8443 79.4535 15.8329 79.4634 15.8192C79.4733 15.8056 79.4805 15.7901 79.4844 15.7736C79.4884 15.7571 79.489 15.7399 79.4864 15.7231C79.4837 15.7063 79.4778 15.6903 79.469 15.6759C79.3671 15.4985 79.2251 15.3488 79.0549 15.2395C78.8846 15.1303 78.6913 15.0645 78.491 15.048C78.4745 15.0475 78.458 15.0505 78.4426 15.0566C78.4272 15.0628 78.4132 15.0721 78.4013 15.0839C78.3895 15.0958 78.38 15.1099 78.3736 15.1255C78.3672 15.1411 78.3639 15.1579 78.3639 15.1749C78.3634 15.1918 78.3663 15.2087 78.3724 15.2245C78.3784 15.2403 78.3874 15.2546 78.399 15.2668C78.4105 15.2789 78.4243 15.2886 78.4396 15.2952C78.4548 15.3018 78.4712 15.3051 78.4878 15.3051C78.6454 15.322 78.797 15.3768 78.9301 15.465C79.0632 15.5532 79.1742 15.6724 79.2539 15.8128C79.2631 15.8274 79.275 15.8399 79.289 15.8496C79.303 15.8594 79.3188 15.8662 79.3354 15.8696Z" fill="#263238"/>
<path d="M71.3158 13.7654C71.3158 13.7654 70.3052 15.5155 71.5766 15.9932C72.848 16.4708 73.5912 15.579 73.5815 14.7974C73.5717 14.0159 73.3435 13.1909 75.2115 13.575C76.8708 13.909 77.8977 10.3786 75.6907 10.4354C74.328 10.4688 71.8211 11.3272 71.3158 13.7654Z" fill="#263238"/>
<path d="M77.2979 19.2196C77.2979 19.2196 76.0493 18.4414 75.8276 17.8168C75.8276 17.8168 75.5016 18.8455 76.1536 19.3231C76.3216 19.4577 76.5332 19.5219 76.7457 19.5027C76.9581 19.4835 77.1555 19.3823 77.2979 19.2196Z" fill="white"/>
<path d="M76.3231 16.257C76.2644 16.4775 76.3231 16.6879 76.4731 16.728C76.623 16.768 76.7763 16.6177 76.8349 16.394C76.8936 16.1702 76.8349 15.9631 76.6817 15.923C76.5285 15.8829 76.3818 16.0332 76.3231 16.257Z" fill="#263238"/>
<path d="M78.4812 16.9117C78.4226 17.1321 78.4812 17.3425 78.6312 17.3793C78.7812 17.416 78.9311 17.269 78.9898 17.0453C79.0485 16.8215 78.9898 16.6144 78.8398 16.5777C78.6899 16.5409 78.5367 16.6879 78.4812 16.9117Z" fill="#263238"/>
<path d="M78.7746 16.5743H79.3321C79.3321 16.5743 78.9572 16.9083 78.7746 16.5743Z" fill="#263238"/>
<path d="M77.6565 16.5009C77.6565 16.5009 77.8749 17.1889 78.1455 17.8068C78.168 17.8533 78.1797 17.9045 78.1796 17.9564C78.1795 18.0083 78.1675 18.0594 78.1448 18.1058C78.122 18.1521 78.089 18.1924 78.0483 18.2234C78.0077 18.2544 77.9606 18.2753 77.9107 18.2844C77.6699 18.3291 77.425 18.3459 77.1805 18.3345L77.6565 16.5009Z" fill="#7A4224"/>
<path d="M70.6964 15.8462C70.735 16.099 70.8256 16.3404 70.9622 16.5546C71.0988 16.7688 71.2782 16.9509 71.4885 17.0887C72.033 17.4227 72.4959 16.8349 72.5057 16.1201C72.5057 15.4755 72.2416 14.5302 71.6189 14.5002C70.9963 14.4701 70.579 15.1682 70.6964 15.8362" fill="#9E6141"/>
<path d="M71.8015 17.0252C71.8014 17.092 71.7818 17.1572 71.7452 17.2124C71.7086 17.2676 71.6567 17.3104 71.5962 17.3351C71.5357 17.3598 71.4693 17.3654 71.4057 17.3511C71.342 17.3368 71.284 17.3032 71.2391 17.2549C71.1943 17.2065 71.1646 17.1454 71.1539 17.0795C71.1432 17.0137 71.1521 16.9461 71.1792 16.8854C71.2064 16.8248 71.2507 16.7738 71.3065 16.7392C71.3622 16.7046 71.4267 16.6879 71.4918 16.6912C71.5754 16.6955 71.6542 16.7326 71.7119 16.7948C71.7695 16.8569 71.8016 16.9395 71.8015 17.0252Z" fill="white"/>
<path d="M76.61 15.923H77.1675C77.1675 15.923 76.7958 16.257 76.61 15.923Z" fill="#263238"/>
<path d="M109.706 65.0878L119.896 67.0217L113.797 58.4345L109.706 65.0878Z" fill="#0CDEF2"/>
<g opacity="0.6">
<path d="M113.797 58.4345L118.126 64.53L119.896 67.0217L116.972 66.4706L109.702 65.0878L113.797 58.4345Z" fill="white"/>
</g>
<path d="M118.126 64.53L119.896 67.0217L116.962 66.4706C117.302 65.7949 117.691 65.1462 118.126 64.53Z" fill="#263238"/>
<path d="M49.1804 16.7079L113.797 58.4346L115.43 60.7358L112.431 60.6523L113.924 63.2341L111.068 62.8701L112.255 65.5721L109.702 65.0878L45.0891 23.3579L49.1804 16.7079Z" fill="#0CDEF2"/>
<path d="M49.1813 16.7011L45.088 23.3556L48.2514 25.3981L52.3447 18.7437L49.1813 16.7011Z" fill="#263238"/>
<path d="M43.0418 18.3552L43.8952 16.9678C44.3249 16.2693 45.0077 15.7744 45.7936 15.5917C46.5794 15.4091 47.4039 15.5538 48.0856 15.994L49.1888 16.7063L45.0955 23.3607L43.9923 22.6484C43.3106 22.2082 42.8274 21.5086 42.6492 20.7035C42.4709 19.8983 42.6122 19.0536 43.0418 18.3552Z" fill="#0CDEF2"/>
<g opacity="0.6">
<path d="M43.0418 18.3552L43.8952 16.9678C44.3249 16.2693 45.0077 15.7743 45.7936 15.5917C46.5794 15.4091 47.4039 15.5538 48.0856 15.994L49.1888 16.7063L45.0955 23.3607L43.9923 22.6484C43.3106 22.2082 42.8274 21.5086 42.6492 20.7035C42.4709 19.8983 42.6122 19.0536 43.0418 18.3552Z" fill="white"/>
</g>
<path d="M111.026 62.84C111.012 62.8618 110.99 62.8774 110.965 62.8836C110.941 62.8898 110.914 62.8862 110.892 62.8734L49.552 23.271C49.53 23.2564 49.5145 23.2334 49.509 23.2071C49.5035 23.1808 49.5084 23.1533 49.5227 23.1307C49.5369 23.1082 49.5594 23.0923 49.585 23.0867C49.6107 23.081 49.6375 23.0861 49.6596 23.1007L110.996 62.7064C111.018 62.7201 111.033 62.7419 111.038 62.767C111.044 62.792 111.039 62.8183 111.026 62.84Z" fill="#263238"/>
<path d="M112.392 60.6256C112.377 60.6477 112.355 60.6633 112.33 60.6695C112.304 60.6757 112.278 60.6719 112.255 60.659L50.9277 21.0533C50.9061 21.0383 50.891 21.0153 50.8855 20.9892C50.88 20.963 50.8846 20.9357 50.8984 20.913C50.905 20.9018 50.9138 20.8921 50.9242 20.8845C50.9346 20.8768 50.9464 20.8715 50.9589 20.8686C50.9714 20.8658 50.9843 20.8657 50.9969 20.8681C51.0095 20.8706 51.0214 20.8756 51.032 20.8829L112.359 60.502C112.378 60.515 112.392 60.5348 112.398 60.5575C112.404 60.5802 112.402 60.6045 112.392 60.6256Z" fill="#263238"/>
<path d="M71.2832 39.2229C70.9572 39.3798 70.6475 39.5235 70.3345 39.6604C70.1519 39.7439 69.9726 39.8207 69.7901 39.8975C69.2913 40.1113 68.7893 40.3184 68.2807 40.5088C67.2701 40.8962 66.2399 41.2402 65.187 41.5508C64.1142 41.8655 63.0261 42.1219 61.927 42.319C61.363 42.4226 60.7892 42.4927 60.1861 42.5428C59.6171 42.5972 59.0446 42.6028 58.4746 42.5595L58.2627 42.5428C57.9927 42.5128 57.7294 42.4372 57.4836 42.319C57.1705 42.1669 56.891 41.951 56.6621 41.6845C56.4113 41.3858 56.2247 41.0364 56.1144 40.6591C56.0171 40.3338 55.9612 39.997 55.9481 39.6571C55.9326 39.2669 55.9457 38.8762 55.9872 38.4881C56.0457 37.8715 56.1349 37.2583 56.2546 36.6511C56.473 35.4921 56.7273 34.3899 57.0076 33.3111C57.1739 32.6698 57.3336 32.0352 57.5292 31.4006L61.6988 34.0926C61.6499 34.2529 61.6075 34.4266 61.5651 34.5769C61.2913 35.6023 61.0174 36.6243 60.8055 37.6163C60.7729 37.77 60.7403 37.9236 60.711 38.0739C60.9587 38.0739 61.213 38.0739 61.4673 38.0572C62.4453 38.0205 63.4233 37.9203 64.4469 37.81C65.2782 37.7165 66.1161 37.6063 66.9571 37.476L67.5016 37.3992L70.579 36.9483L71.2832 39.2229Z" fill="#9E6141"/>
<path d="M70.3345 36.9951C70.3345 36.9951 73.011 36.13 73.5945 36.2302C74.2302 36.3438 74.0444 39.774 73.2392 40.2716C72.4339 40.7693 70.5008 39.2696 70.5008 39.2696L70.3345 36.9951Z" fill="#9E6141"/>
<path d="M70.3378 37.0251C70.6498 36.6234 71.0437 36.2963 71.4918 36.0666C72.0884 35.8294 72.6295 35.442 72.9099 35.5422C73.1903 35.6424 72.2025 36.5742 72.2025 36.5742L70.3378 37.0251Z" fill="#9E6141"/>
<path d="M73.5815 36.2302C73.5815 36.2302 75.2408 36.6544 75.7852 37.3324C76.3296 38.0104 74.8431 37.6397 74.8431 37.6397C74.8431 37.6397 76.5807 38.2209 75.9156 39.5869C75.5896 40.2549 73.6141 40.4553 72.7013 40.3618C72.698 40.3618 72.6361 37.5061 73.5815 36.2302Z" fill="#9E6141"/>
<path d="M89.1382 41.7045C89.1382 41.7045 89.0925 41.474 88.4666 41.3237C88.0423 41.2039 87.5985 41.1743 87.1626 41.2369L88.6785 42.2389C88.6785 42.2389 88.5123 43.6049 89.2295 44.2162C90.6704 45.4453 91.782 44.7138 92.0917 44.45C92.4014 44.1861 91.8864 43.0004 90.9801 42.3124C90.4486 41.9066 89.8009 41.6928 89.1382 41.7045Z" fill="#9E6141"/>
</g>
<defs>
<clipPath id="clip0_1_18">
<rect width="164" height="129" fill="white"/>
</clipPath>
</defs>
</svg>
